:SAMPLES-PER-SECOND 30
:FULLY-SPECIFIED
:DEGREES
261
root  -13.4844 40.6611 -6.53048 -159.115 -85.4307 155.245
RightUpLeg  -1.58398 -11.6287 -14.2668
RightLeg  6.70106 -0.723734 1.14358
RightFoot  1.06934 -0.749113 6.9483
RightToes  0.00048216 0.542163 -0.142577
Spine  -3.24112 1.72572 5.40136
Spine1  19.2943 3.39816 -5.2376
HEad  -17.1792 -1.62548 10.5137
LeftShoulder1  8.57065 -16.5709 -36.5756
LeftArm  56.8224 39.5944 18.2916
LeftForeArm  -129.048 -62.9678 -165.507
LeftHand  -0.25398 0.0180481 5.50724
RightShoulder  4.17765 10.0124 24.7786
RightArm  56.5053 -41.5773 -6.2101
RightForeArm  -145.009 67.7516 160.753
RightHand  -1.83672 15.488 -10.7223
LeftUpLeg  2.28583 6.04812 -0.268398
LeftLeg  8.71358 13.348 -2.86209
LeftFoot  -7.64806 0.0140933 0.989526
LeftToes  1.06246e-005 4.65855e-005 -8.18503e-006
262
root  -13.6732 40.6919 -6.76741 -165.043 -84.9878 161.11
RightUpLeg  -1.15417 -11.2707 -13.6464
RightLeg  6.36633 -0.615269 1.30828
RightFoot  1.00743 -0.718658 6.69868
RightToes  0.00048216 0.542163 -0.142577
Spine  -3.74156 1.58003 5.42179
Spine1  19.1578 2.96254 -4.53345
HEad  -17.5185 -1.12115 10.8276
LeftShoulder1  8.83799 -16.7131 -37.5639
LeftArm  60.5325 41.7151 18.0931
LeftForeArm  -131.743 -63.6579 -164.901
LeftHand  -0.25398 0.0180481 5.50724
RightShoulder  4.19399 9.94461 25.0704
RightArm  58.7046 -44.0397 -6.43171
RightForeArm  -147.494 67.9926 160.313
RightHand  -2.36437 16.0232 -13.2837
LeftUpLeg  2.83176 6.26788 0.392744
LeftLeg  8.57778 13.4981 -2.6502
LeftFoot  -7.79012 0.0318433 0.483803
LeftToes  1.06246e-005 4.65855e-005 -8.18503e-006
263
root  -13.8458 40.7194 -7.03472 -169.323 -84.4924 165.486
RightUpLeg  -1.00896 -11.0023 -13.0089
RightLeg  6.2098 -0.468884 1.52612
RightFoot  0.956549 -0.661123 6.19067
RightToes  0.00048216 0.542163 -0.142577
Spine  -4.12237 1.39088 5.51315
Spine1  18.6434 2.53711 -4.00269
HEad  -18.1402 -0.430533 10.9893
LeftShoulder1  9.15197 -16.7649 -38.945
LeftArm  61.853 43.2582 16.9049
LeftForeArm  -138.801 -65.0921 -163.461
LeftHand  -0.25398 0.0180481 5.50724
RightShoulder  4.25238 9.73149 26.0555
RightArm  58.9815 -45.5343 -5.35003
RightForeArm  -152.612 68.7171 159.139
RightHand  -3.15842 16.909 -16.8306
LeftUpLeg  3.18508 6.48281 1.02828
LeftLeg  8.44602 13.6736 -2.42815
LeftFoot  -7.87637 0.050869 -0.115724
LeftToes  1.06246e-005 4.65855e-005 -8.18503e-006
264
root  -14.002 40.7426 -7.33217 -172.528 -83.8004 168.895
RightUpLeg  -1.15729 -10.766 -12.334
RightLeg  6.27737 -0.182754 1.73931
RightFoot  0.864619 -0.590704 5.5747
RightToes  0.00048216 0.542163 -0.142577
Spine  -4.30434 1.26292 5.51501
Spine1  17.6408 2.13343 -3.3433
HEad  -18.7812 0.33372 10.7485
LeftShoulder1  9.40125 -16.6023 -40.471
LeftArm  60.9126 44.1413 15.0983
LeftForeArm  -143.886 -66.6053 -161.882
LeftHand  -0.25398 0.0180481 5.50724
RightShoulder  4.34908 9.55139 27.2818
RightArm  58.1449 -46.3945 -3.68687
RightForeArm  -157.339 69.4319 157.906
RightHand  -4.20514 18.2051 -20.9416
LeftUpLeg  3.41442 6.66334 1.63244
LeftLeg  8.30751 14.0541 -2.2073
LeftFoot  -7.90535 0.0677647 -0.675131
LeftToes  1.06246e-005 4.65855e-005 -8.18503e-006
265
root  -14.1546 40.7616 -7.65098 -175.32 -82.9045 171.804
RightUpLeg  -1.23616 -10.5374 -11.6533
RightLeg  6.35061 0.334886 1.9739
RightFoot  0.688845 -0.529066 5.06144
RightToes  0.00048216 0.542163 -0.142577
Spine  -4.23137 1.20666 5.44898
Spine1  16.3005 1.74563 -2.45826
HEad  -19.0895 1.21598 10.1092
LeftShoulder1  9.55126 -16.3282 -41.7886
LeftArm  58.7866 44.5072 13.3134
LeftForeArm  -145.31 -67.8223 -160.656
LeftHand  -0.25398 0.0180481 5.50724
RightShoulder  4.44055 9.51006 28.1162
RightArm  56.5363 -47.019 -1.73574
RightForeArm  -160.56 70.1588 156.709
RightHand  -5.50419 20.067 -25.1478
LeftUpLeg  3.79537 6.83131 2.28276
LeftLeg  8.11632 14.607 -2.02681
LeftFoot  -7.92293 0.0811021 -1.12323
LeftToes  1.06246e-005 4.65855e-005 -8.18503e-006
266
root  -14.3213 40.7784 -7.979 -177.747 -81.9643 174.268
RightUpLeg  -1.14518 -10.3075 -10.9795
RightLeg  6.36714 0.939075 2.23851
RightFoot  0.406497 -0.467634 4.5686
RightToes  0.00048216 0.542163 -0.142577
Spine  -4.26471 1.18081 5.48249
Spine1  15.1185 1.41603 -1.60807
HEad  -19.1402 2.21463 9.57789
LeftShoulder1  9.61943 -16.165 -42.4843
LeftArm  56.8521 44.4954 11.9723
LeftForeArm  -145.416 -68.6658 -159.8
LeftHand  -0.25398 0.0180481 5.50724
RightShoulder  4.50222 9.53653 28.5312
RightArm  54.7186 -47.2621 -0.0805702
RightForeArm  -163.222 70.9131 155.445
RightHand  -6.92928 22.1987 -28.9638
LeftUpLeg  4.35962 6.99023 2.98572
LeftLeg  7.8381 15.1906 -1.88904
LeftFoot  -7.94553 0.0938027 -1.55478
LeftToes  1.06246e-005 4.65855e-005 -8.18503e-006
267
root  -14.5045 40.7975 -8.30911 -179.57 -81.0962 176.23
RightUpLeg  -1.11812 -10.0455 -10.272
RightLeg  6.41452 1.40058 2.46745
RightFoot  0.0858881 -0.393694 3.93796
RightToes  0.00048216 0.542163 -0.142577
Spine  -4.88418 1.15267 5.62737
Spine1  14.5649 1.129 -0.910719
HEad  -19.2252 3.14501 9.47745
LeftShoulder1  9.63449 -16.2057 -42.4619
LeftArm  55.9153 44.1336 10.9413
LeftForeArm  -145.828 -69.3169 -159.067
LeftHand  -0.25398 0.0180481 5.50724
RightShoulder  4.54562 9.57234 28.7743
RightArm  53.6612 -46.6689 0.628387
RightForeArm  -165.397 71.4648 154.43
RightHand  -8.03657 23.7515 -31.6044
LeftUpLeg  4.89995 7.12278 3.67694
LeftLeg  7.4402 15.77 -1.79692
LeftFoot  -7.91307 0.109057 -2.05551
LeftToes  1.06246e-005 4.65855e-005 -8.18503e-006
268
root  -14.6821 40.8174 -8.6392 179.169 -80.2841 177.719
RightUpLeg  -1.23114 -9.73671 -9.52473
RightLeg  6.56136 1.70113 2.61006
RightFoot  -0.204035 -0.317724 3.24296
RightToes  0.00048216 0.542163 -0.142577
Spine  -5.92035 1.0709 5.65754
Spine1  14.5875 0.751096 -0.105859
HEad  -19.4418 3.90109 9.55376
LeftShoulder1  9.63537 -16.3656 -42.099
LeftArm  55.8748 43.4615 9.81447
LeftForeArm  -146.716 -70.1112 -158.079
LeftHand  -0.25398 0.0180481 5.50724
RightShoulder  4.58366 9.6932 28.7438
RightArm  53.714 -45.0864 0.615564
RightForeArm  -166.48 71.6691 154.004
RightHand  -8.49159 24.3083 -32.6723
LeftUpLeg  5.36678 7.25084 4.33541
LeftLeg  6.9703 16.3551 -1.75631
LeftFoot  -7.80233 0.126235 -2.5695
LeftToes  1.06246e-005 4.65855e-005 -8.18503e-006
269
root  -14.8289 40.8296 -8.96496 177.885 -79.5296 179.057
RightUpLeg  -1.22021 -9.4212 -8.77834
RightLeg  6.78861 1.95327 2.711
RightFoot  -0.491567 -0.252965 2.62715
RightToes  0.00048216 0.542163 -0.142577
Spine  -6.64435 0.864276 5.49342
Spine1  14.742 0.181849 0.976151
HEad  -19.8112 4.65321 9.52495
LeftShoulder1  9.66527 -16.5373 -41.8493
LeftArm  56.1798 42.543 8.45506
LeftForeArm  -148.207 -71.2059 -156.567
LeftHand  -0.25398 0.0180481 5.50724
RightShoulder  4.62135 9.94784 28.3563
RightArm  54.2499 -42.7344 0.557689
RightForeArm  -166.656 71.6052 154.076
RightHand  -8.43477 24.2481 -32.5261
LeftUpLeg  5.93015 7.44123 5.04216
LeftLeg  6.60775 16.8067 -1.70755
LeftFoot  -7.70845 0.142452 -3.03373
LeftToes  1.06246e-005 4.65855e-005 -8.18503e-006
270
root  -14.9443 40.8284 -9.28022 176.023 -78.9046 -179.302
RightUpLeg  -0.905142 -9.13808 -8.02575
RightLeg  7.03014 2.15563 2.84487
RightFoot  -0.83077 -0.193985 2.04605
RightToes  0.00048216 0.542163 -0.142577
Spine  -6.77262 0.553143 5.37856
Spine1  14.8474 -0.493666 2.11231
HEad  -20.5306 5.56198 9.46663
LeftShoulder1  9.74264 -16.7098 -41.8212
LeftArm  56.4565 41.3288 7.01273
LeftForeArm  -150.411 -72.4975 -154.509
LeftHand  -0.25398 0.0180481 5.50724
RightShoulder  4.67254 10.2244 28.0262
RightArm  54.6433 -39.9004 0.509978
RightForeArm  -166.65 71.4352 154.324
RightHand  -8.20196 24.1048 -31.8332
LeftUpLeg  6.62217 7.74514 5.89185
LeftLeg  6.52571 16.9427 -1.55558
LeftFoot  -7.73892 0.156797 -3.51059
LeftToes  1.06246e-005 4.65855e-005 -8.18503e-006
